<?xml version="1.0" encoding="utf-8"?>
<!-- Generator: Adobe Illustrator 17.0.1, SVG Export Plug-In . SVG Version: 6.00 Build 0)  -->
<!DOCTYPE svg PUBLIC "-//W3C//DTD SVG 1.1//EN" "http://www.w3.org/Graphics/SVG/1.1/DTD/svg11.dtd">
<svg version="1.1" id="Layer_1" xmlns="http://www.w3.org/2000/svg" xmlns:xlink="http://www.w3.org/1999/xlink" x="0px" y="0px"
	 width="237px" height="25px" viewBox="0 0 237 25" enable-background="new 0 0 237 25" xml:space="preserve">
<g>
	<g>
		<path d="M31.018-60.518c-5.81-4.579-18.351-3.263-24.28,0.609c-2.687,1.755-0.185,6.086,2.524,4.317
			c2.426-1.585,5.618-2.014,8.441-2.323c2.673-0.293,7.483-0.878,9.78,0.933C29.985-55.01,33.549-58.523,31.018-60.518
			L31.018-60.518z"/>
	</g>
</g>
<g>
	<g>
		<path d="M48.25-38.25c-4.505,0.109-8.448,2.127-12.454,3.997c-5.098,2.38-10.23,4.656-15.308,7.094
			c-2.906,1.395-0.368,5.706,2.524,4.317c4.452-2.138,8.814-4.393,13.395-6.252c3.875-1.573,7.543-4.052,11.843-4.156
			C51.469-33.328,51.476-38.328,48.25-38.25L48.25-38.25z"/>
	</g>
</g>
<g>
	<g>
		<linearGradient id="SVGID_1_" gradientUnits="userSpaceOnUse" x1="28.1758" y1="-30.2713" x2="57.2738" y2="-30.2713">
			<stop  offset="0" style="stop-color:#FFF359"/>
			<stop  offset="0.0595" style="stop-color:#FBDE4F"/>
			<stop  offset="0.1303" style="stop-color:#F5CE48"/>
			<stop  offset="0.2032" style="stop-color:#F1C446"/>
			<stop  offset="0.2809" style="stop-color:#F0C145"/>
			<stop  offset="0.6685" style="stop-color:#DC8A52"/>
			<stop  offset="0.8876" style="stop-color:#D46D50"/>
			<stop  offset="1" style="stop-color:#CF584F"/>
		</linearGradient>
		<path fill="url(#SVGID_1_)" d="M57.25-37.25c-10.849-0.091-19.299,7.197-29.665,9.089c-3.169,0.579-1.822,5.397,1.329,4.821
			c9.849-1.798,18.103-8.997,28.335-8.911C60.475-32.223,60.473-37.223,57.25-37.25L57.25-37.25z"/>
	</g>
</g>
<g>
	<g>
		<linearGradient id="SVGID_2_" gradientUnits="userSpaceOnUse" x1="31.25" y1="-59.679" x2="63.2555" y2="-59.679">
			<stop  offset="0" style="stop-color:#FFF359"/>
			<stop  offset="0.0595" style="stop-color:#FBDE4F"/>
			<stop  offset="0.1303" style="stop-color:#F5CE48"/>
			<stop  offset="0.2032" style="stop-color:#F1C446"/>
			<stop  offset="0.2809" style="stop-color:#F0C145"/>
			<stop  offset="0.6685" style="stop-color:#DC8A52"/>
			<stop  offset="0.8876" style="stop-color:#D46D50"/>
			<stop  offset="1" style="stop-color:#CF584F"/>
		</linearGradient>
		<path fill="url(#SVGID_2_)" d="M64.262-59.659c-10.205-5.629-21.764-4.649-33.012-4.591c-3.223,0.017-3.225,5.017,0,5
			c10.257-0.053,21.162-1.235,30.488,3.909C64.563-53.783,67.085-58.101,64.262-59.659L64.262-59.659z"/>
	</g>
</g>
<g>
	<linearGradient id="SVGID_3_" gradientUnits="userSpaceOnUse" x1="-2.25" y1="11.6422" x2="231.75" y2="11.6422">
		<stop  offset="0" style="stop-color:#FFFFFF"/>
		<stop  offset="1" style="stop-color:#000000"/>
	</linearGradient>
	<path fill="url(#SVGID_3_)" d="M-2.25,10.75c8,0,15.75,1.5,23.75,1.5c8.25,0,16-1.5,24.25-0.75c17,1.75,34.5,0.75,51.75,0.75
		c17.5,0,35-1.5,52.5-1.5c16.5,0,32.25,1.5,48.5,1.5c11.25,0,22.25-0.5,33.25-0.5"/>
	<g>
		<linearGradient id="SVGID_4_" gradientUnits="userSpaceOnUse" x1="114.5047" y1="15.5344" x2="114.5047" y2="7.75">
			<stop  offset="0" style="stop-color:#FFF359"/>
			<stop  offset="0.148" style="stop-color:#FFE854"/>
			<stop  offset="0.2296" style="stop-color:#FDE351"/>
			<stop  offset="0.3622" style="stop-color:#FADA4D"/>
			<stop  offset="0.5153" style="stop-color:#F6D149"/>
			<stop  offset="0.5969" style="stop-color:#F4CC48"/>
			<stop  offset="0.6684" style="stop-color:#F2C847"/>
			<stop  offset="0.7398" style="stop-color:#F1C345"/>
			<stop  offset="0.7809" style="stop-color:#F0C145"/>
			<stop  offset="0.8214" style="stop-color:#EBB647"/>
			<stop  offset="0.8724" style="stop-color:#E6A84A"/>
			<stop  offset="0.9235" style="stop-color:#E29B4E"/>
			<stop  offset="1" style="stop-color:#DC8A52"/>
		</linearGradient>
		<path fill="url(#SVGID_4_)" d="M-2.25,25.75c9.21,0.126,18.298,1.741,27.526,1.407c4.329-0.156,8.643-0.627,12.972-0.82
			c5.05-0.224,10.059,0.448,15.089,0.771c19.753,1.27,39.949,0.504,59.72-0.176c19.522-0.671,38.861-1.454,58.395-0.567
			c20.15,0.915,40.145,0.436,60.299,0.384c19.344-0.05,19.348-30.05,0-30c-19.504,0.05-38.87,0.615-58.37-0.295
			c-20.181-0.942-40.153-0.268-60.324,0.478C93.876-2.358,74.417-1.91,55.241-2.787c-9.528-0.436-18.555-0.789-28.097-0.157
			C17.284-2.29,7.587-4.115-2.25-4.25c-8.177-0.112-15,6.908-15,15C-17.25,19.012-10.425,25.638-2.25,25.75L-2.25,25.75z"/>
	</g>
</g>
</svg>
