<?xml version="1.0" encoding="utf-8"?>
<!-- Generator: Adobe Illustrator 17.0.1, SVG Export Plug-In . SVG Version: 6.00 Build 0)  -->
<!DOCTYPE svg PUBLIC "-//W3C//DTD SVG 1.1//EN" "http://www.w3.org/Graphics/SVG/1.1/DTD/svg11.dtd">
<svg version="1.1" id="Layer_1" xmlns="http://www.w3.org/2000/svg" xmlns:xlink="http://www.w3.org/1999/xlink" x="0px" y="0px"
	 width="728px" height="90px" viewBox="0 0 728 90" enable-background="new 0 0 728 90" xml:space="preserve">
<g>
	<g>
		<linearGradient id="SVGID_1_" gradientUnits="userSpaceOnUse" x1="-27.8398" y1="47.4127" x2="757.8851" y2="47.4127">
			<stop  offset="0" style="stop-color:#FFEB4A"/>
			<stop  offset="0.1684" style="stop-color:#FFE745"/>
			<stop  offset="0.2704" style="stop-color:#FFE542"/>
			<stop  offset="0.4337" style="stop-color:#FFE23D"/>
			<stop  offset="0.5663" style="stop-color:#FFDF39"/>
			<stop  offset="0.6888" style="stop-color:#FFDC35"/>
			<stop  offset="0.9031" style="stop-color:#FFCC1F"/>
			<stop  offset="1" style="stop-color:#FFB600"/>
		</linearGradient>
		<path fill="url(#SVGID_1_)" d="M44,83c4.333,0,8.667,0,13,0c24.53,0,45-20.47,45-45c0-25.118-20.489-44.223-45-45
			c-0.545-0.003-1.088-0.035-1.629-0.098c3.988,0.536,7.975,1.072,11.963,1.607c-8.639-1.163-16.702-5.332-25.019-7.762
			c-5.425-1.585-11.544-2.077-16.949-2.714c-5.374-0.633-10.668,0.848-16.008,1.57C3.126-13.553-8.703-6.804-12.82-1.82
			c-6.287,7.611-10.258,12.951-12.948,22.667C-31.77,42.526-24.209,67.297-9.82,83.82c9.877,11.341,25.351,17.857,40.267,17.784
			c12.716-0.063,22.428-5.262,33.809-10.149c-3.583,1.512-7.166,3.024-10.75,4.536C70.945,88.823,89,83.371,107.687,80.676
			c-3.988,0.536-7.975,1.072-11.963,1.607c15.639-2.092,30.924-1.403,46.612-0.46c15.637,0.94,31.288,1.634,46.957,1.444
			c16.138-0.196,32.083-2.159,48.15-3.412c16.06-1.252,32.158-1.984,48.259-2.419c32.75-0.886,65.388-0.104,98.082,1.888
			c32.583,1.985,65.147,4.519,97.809,4.62c18.389,0.057,36.698-1.293,55.063-1.995c18.873-0.721,37.763-0.882,56.648-0.933
			c9.119-0.025,18.264-0.214,27.376,0.186c8.973,0.394,17.908,1.42,26.88,1.851c15.368,0.739,30.317-2.169,45.476-4.258
			c-3.988,0.536-7.975,1.072-11.963,1.607c6.61-0.881,13.368-1.725,20.034-1.009c-3.988-0.536-7.975-1.072-11.963-1.607
			c1.635,0.23,3.19,0.562,4.724,1.18c-3.583-1.512-7.166-3.024-10.75-4.536c0.614,0.3,1.158,0.616,1.711,1.017
			c-3.036-2.345-6.072-4.691-9.107-7.036c0.989,0.885,1.879,1.829,2.759,2.82c-2.345-3.036-4.691-6.072-7.036-9.107
			c0.822,1.083,1.497,2.113,2.1,3.33c-1.512-3.583-3.024-7.166-4.536-10.75c0.283,0.648,0.482,1.321,0.596,2.019
			c-0.536-3.988-1.072-7.975-1.607-11.963c0.099,0.615,0.109,1.231,0.032,1.849c0.536-3.988,1.072-7.975,1.607-11.963
			c-0.076,0.579-0.231,1.136-0.466,1.671c1.512-3.583,3.024-7.166,4.536-10.75c-0.237,0.533-0.536,1.028-0.897,1.485
			c2.345-3.036,4.691-6.072,7.036-9.107c-0.376,0.474-0.796,0.904-1.261,1.291c3.036-2.345,6.072-4.691,9.107-7.036
			c-1.059,0.809-2.132,1.422-3.348,1.968c3.583-1.512,7.166-3.024,10.75-4.536c-1.319,0.493-2.617,0.844-4.001,1.099
			c3.988-0.536,7.975-1.072,11.963-1.607c-1.727,0.218-3.374,0.25-5.105,0.054c3.988,0.536,7.975,1.072,11.963,1.607
			c-4.794-0.882-9.653-1.354-14.485-1.989c3.988,0.536,7.975,1.072,11.963,1.607c-3.191-0.61-6.174-1.607-9.174-2.842
			c3.583,1.512,7.166,3.024,10.75,4.536c-9.162-4.018-17.984-8.563-27.433-11.983c-8.6-3.113-18.967-3.814-28.118-2.882
			c-9.362,0.953-18.069,2.251-26.843,5.417c-8.545,3.084-16.804,6.949-25.17,10.481c3.583-1.512,7.166-3.024,10.75-4.536
			c-7.052,2.941-14.169,5.537-21.763,6.64c3.988-0.536,7.975-1.072,11.963-1.607C600.9,13.795,599.459,13.919,598,14
			c-16.106,0.897-30.496,8.016-38.856,22.288c-8.291,14.154-7.82,31.238,0,45.425c13.779,24.997,43.909,30.64,69.933,28.96
			c17.791-1.149,35.281-4.709,52.886-7.279c7.623-2.138,14.242-5.996,19.857-11.573c5.577-5.615,9.435-12.234,11.573-19.857
			c4.538-16.497-0.963-31.236-11.573-43.783C682.555,5.398,648.385,1.964,620.644,4.096c-10.148,0.78-20.222,2.292-30.311,3.59
			c-11.479,1.477-23.022,1.899-34.587,2.139c-16.346,0.34-32.699,0.085-49.047,0.261c-16.414,0.176-32.765,1.26-49.149,2.162
			c-32.552,1.793-65.134,3.052-97.726,3.84c-39.168,0.947-78.423,1.559-117.587,0.159c-38.901-1.391-77.722-4.836-116.304-9.965
			c3.988,0.536,7.975,1.072,11.963,1.607c-22.941-3.085-46.112-8.363-69.259-9.068C35.662-2.183-2.715,15.553-3.345,53.325
			c-0.667,40.018,42.878,56.757,76.486,54.503c21.379-1.434,41.213-8.657,62.23-11.712c-3.988,0.536-7.975,1.072-11.963,1.607
			C127.601,97.184,131.77,96.9,136,97c24.531,0.581,45-20.909,45-45c0-24.97-20.482-44.42-45-45
			c-24.081-0.57-46.436,8.629-69.92,11.918c3.988-0.536,7.975-1.072,11.963-1.607c-5.992,0.74-11.929,0.957-17.941,0.316
			c3.988,0.536,7.975,1.072,11.963,1.607c-4.385-0.598-8.623-1.584-12.731-3.249c3.583,1.512,7.166,3.024,10.75,4.536
			c-1.116-0.526-2.147-1.074-3.178-1.75c3.036,2.345,6.072,4.691,9.107,7.036c-0.718-0.569-1.298-1.109-1.863-1.828
			c2.345,3.036,4.691,6.072,7.036,9.107c-0.117-0.206-0.235-0.412-0.352-0.618c1.512,3.583,3.024,7.166,4.536,10.75
			c-0.186-0.393-0.297-0.806-0.332-1.239c0.536,3.988,1.072,7.975,1.607,11.963c0.003-0.206,0.007-0.411,0.01-0.617
			c-0.536,3.988-1.072,7.975-1.607,11.963c0.05-0.425,0.166-0.832,0.348-1.22c-1.512,3.583-3.024,7.166-4.536,10.75
			c0.202-0.427,0.452-0.823,0.751-1.189c-2.345,3.036-4.691,6.072-7.036,9.107c0.561-0.631,1.137-1.163,1.794-1.694
			c-3.036,2.345-6.072,4.691-9.107,7.036c1.403-0.991,2.866-1.766,4.434-2.464c-3.583,1.512-7.166,3.024-10.75,4.536
			c3.065-1.223,6.191-2.012,9.453-2.501c-3.988,0.536-7.975,1.072-11.963,1.607c8.482-0.992,17.042-0.228,25.474,0.865
			c-3.988-0.536-7.975-1.072-11.963-1.607c35.354,4.875,70.552,10.361,106.113,13.624c32.312,2.964,64.747,4.574,97.193,4.834
			c65.323,0.523,130.744-1.67,195.947-5.502c36.077-2.12,72.273-0.117,108.314-2.62c22.37-1.554,44.471-7.358,67.02-4.626
			c-3.988-0.536-7.975-1.072-11.963-1.607c4.651,0.638,9.178,1.665,13.517,3.486c-3.583-1.512-7.166-3.024-10.75-4.536
			c2.086,0.947,4.032,2.045,5.888,3.389c-3.036-2.345-6.072-4.691-9.107-7.036c1.499,1.174,2.832,2.446,4.061,3.901
			c6.619-25.071,13.238-50.142,19.857-75.212c-8.668,1.265-17.27,2.921-25.953,4.103c3.988-0.536,7.975-1.072,11.963-1.607
			c-10.833,1.436-21.996,2.696-32.904,1.369c3.988,0.536,7.975,1.072,11.963,1.607c-2.741-0.387-5.41-0.956-7.97-2.027
			c3.583,1.512,7.166,3.024,10.75,4.536c-1.03-0.482-1.978-1.022-2.889-1.703c3.036,2.345,6.072,4.691,9.107,7.036
			c-0.63-0.533-1.171-1.086-1.677-1.739c2.345,3.036,4.691,6.072,7.036,9.107c-0.229-0.319-0.431-0.653-0.606-1.004
			C623.904,58.858,610.952,81.429,598,104c9.707-0.541,19.533-1.949,28.783-5.023c9.087-3.02,17.79-7.18,26.592-10.922
			c-3.583,1.512-7.166,3.024-10.75,4.536c6.928-2.919,13.907-5.584,21.36-6.785c-3.988,0.536-7.975,1.072-11.963,1.607
			c3.84-0.507,7.604-0.589,11.459-0.202c-3.988-0.536-7.975-1.072-11.963-1.607c3.241,0.443,6.148,1.263,9.188,2.469
			c-3.583-1.512-7.166-3.024-10.75-4.536c4.591,1.956,9.015,4.267,13.585,6.271c4.963,2.176,10.105,4.484,15.294,6.249
			C684.644,98.032,690.989,98.211,697,99c-3.988-0.536-7.975-1.072-11.963-1.607c11.943,2.197,20.052,2.594,32.03-0.316
			c14.2-3.45,25.317-12.869,33.455-24.601c8.19-11.808,8.692-27.186,5.645-40.668c-3.345-14.803-14.686-25.94-26.429-34.448
			c-10.936-7.924-27.358-8.945-40.342-7.905c-11.53,0.924-22.939,3.049-34.392,4.613c3.988-0.536,7.975-1.072,11.963-1.607
			c-12.816,1.67-25.795,0.217-38.607-0.768c-16.19-1.244-32.526-0.722-48.752-0.614c-32.7,0.219-65.332,2.865-98.015,2.865
			c-32.652,0-65.239-2.612-97.809-4.62c-32.699-2.015-65.329-2.719-98.082-1.888c-21.897,0.556-43.871,1.598-65.648,4.016
			c-21.427,2.38-43.034,2.125-64.535,1.097c-10.714-0.512-21.414-1.433-32.132-1.819c-13.925-0.502-27.695,1.44-41.443,3.423
			C58.074-2.404,35.742,6.355,13.772,15.956c3.583-1.512,7.166-3.024,10.75-4.536c-1.677,0.702-3.324,1.324-5.109,1.688
			c3.988-0.536,7.975-1.072,11.963-1.607c-0.954,0.106-1.788,0.114-2.742,0.005c3.988,0.536,7.975,1.072,11.963,1.607
			c-0.625-0.113-1.227-0.302-1.805-0.567c3.583,1.512,7.166,3.024,10.75,4.536c-0.656-0.303-1.273-0.672-1.85-1.107
			c3.036,2.345,6.072,4.691,9.107,7.036c-1.23-0.998-2.316-2.071-3.357-3.266c2.345,3.036,4.691,6.072,7.036,9.107
			c-0.621-0.886-1.095-1.81-1.544-2.794c1.512,3.583,3.024,7.166,4.536,10.75c-1.281-3.129-2.097-6.359-2.561-9.705
			c0.536,3.988,1.072,7.975,1.607,11.963c-0.182-1.799-0.241-3.54-0.055-5.341c-0.536,3.988-1.072,7.975-1.607,11.963
			c0.16-0.89,0.364-1.67,0.701-2.508c-1.512,3.583-3.024,7.166-4.536,10.75c0.127-0.22,0.253-0.44,0.38-0.66
			c-2.345,3.036-4.691,6.072-7.036,9.107c0.153-0.185,0.306-0.37,0.459-0.556c-3.036,2.345-6.072,4.691-9.107,7.036
			c0.318-0.261,0.666-0.472,1.046-0.631c-3.583,1.512-7.166,3.024-10.75,4.536c0.67-0.238,1.287-0.374,1.992-0.469
			c-3.988,0.536-7.975,1.072-11.963,1.607c1.127-0.061,2.208,0.002,3.328,0.134c-3.988-0.536-7.975-1.072-11.963-1.607
			c5.638,0.896,11.016,3.038,16.363,4.961C38.667,80.588,47.366,82.695,57,83c0-30,0-60,0-90c-4.333,0-8.667,0-13,0
			C19.47-7-1,13.47-1,38S19.47,83,44,83L44,83z"/>
	</g>
</g>
<g>
	<g>
		<path fill="#595C59" d="M5.885-24.364C59.258-23.482,112.615-21.524,166-21.5c3.224,0.001,3.224-4.999,0-5
			c-53.385-0.024-106.742-1.982-160.115-2.864C2.659-29.417,2.664-24.417,5.885-24.364L5.885-24.364z"/>
	</g>
</g>
<g>
	<g>
		<path fill="#595C59" d="M-82-25.5c21.417,0.008,42.831,0.276,64.244,0.672c3.226,0.06,3.22-4.94,0-5
			C-39.169-30.224-60.583-30.492-82-30.5C-85.224-30.501-85.224-25.501-82-25.5L-82-25.5z"/>
	</g>
</g>
<g>
	<g>
		<path fill="#595C59" d="M7.283-7.5c132.929,0,265.858,0,398.788,0c133.016,0,266.031,0,399.047,0c11.294,0,22.588,0,33.883,0
			c3.224,0,3.224-5,0-5c-133,0-266,0-398.999,0c-132.956,0-265.912,0-398.868,0c-11.283,0-22.566,0-33.849,0
			C4.058-12.5,4.058-7.5,7.283-7.5L7.283-7.5z"/>
	</g>
</g>
<g>
	<g>
		<path fill="#595C59" d="M-96-7.5c26.051,0,52.103,0,78.154,0c3.224,0,3.224-5,0-5c-26.051,0-52.103,0-78.154,0
			C-99.224-12.5-99.224-7.5-96-7.5L-96-7.5z"/>
	</g>
</g>
<g>
	<g>
		<path fill="#595C59" d="M5.244,0.5c132.926,0,265.852,0,398.778,0c130.326,0,260.652,0,390.978,0c3.224,0,3.224-5,0-5
			c-132.987,0-265.974,0-398.961,0c-130.265,0-260.53,0-390.795,0C2.02-4.5,2.02,0.5,5.244,0.5L5.244,0.5z"/>
	</g>
</g>
<g>
	<g>
		<path fill="#595C59" d="M-64,0.5c15.387,0,30.773,0,46.16,0c3.224,0,3.224-5,0-5c-15.387,0-30.773,0-46.16,0
			C-67.224-4.5-67.224,0.5-64,0.5L-64,0.5z"/>
	</g>
</g>
<g>
	<g>
		<path fill="#595C59" d="M-34.411-34.665c-2.932,12.595-0.958,24.733,2.843,36.903C-27.473,15.349-22.187,28.011-22.5,42
			c-0.072,3.226,4.928,3.219,5,0c0.583-26.031-18.208-49.048-12.089-75.335C-28.859-36.473-33.68-37.804-34.411-34.665
			L-34.411-34.665z"/>
	</g>
</g>
<g>
	<g>
		<path fill="#595C59" d="M98-155.5c3.224,0,3.224-5,0-5S94.776-155.5,98-155.5L98-155.5z"/>
	</g>
</g>
<image overflow="visible" width="604" height="306" xlink:href="С1111нимок.PNG"  transform="matrix(0.7501 0 0 0.7501 42 -304)">
</image>
</svg>
