<?xml version="1.0" encoding="utf-8"?>
<!-- Generator: Adobe Illustrator 17.0.1, SVG Export Plug-In . SVG Version: 6.00 Build 0)  -->
<!DOCTYPE svg PUBLIC "-//W3C//DTD SVG 1.1//EN" "http://www.w3.org/Graphics/SVG/1.1/DTD/svg11.dtd">
<svg version="1.1" id="Layer_1" xmlns="http://www.w3.org/2000/svg" xmlns:xlink="http://www.w3.org/1999/xlink" x="0px" y="0px"
	 width="237px" height="86.589px" viewBox="0 0 237 86.589" enable-background="new 0 0 237 86.589" xml:space="preserve">
<g>
	<g>
		<linearGradient id="SVGID_1_" gradientUnits="userSpaceOnUse" x1="39.7917" y1="-23.1174" x2="44.6282" y2="-23.1174">
			<stop  offset="0" style="stop-color:#FFFFFF"/>
			<stop  offset="1" style="stop-color:#000000"/>
		</linearGradient>
		<path fill="url(#SVGID_1_)" d="M42.21-20.617c3.224,0,3.224-5,0-5C38.986-25.617,38.986-20.617,42.21-20.617L42.21-20.617z"/>
	</g>
</g>
<g>
	<g>
		<linearGradient id="SVGID_2_" gradientUnits="userSpaceOnUse" x1="119.3394" y1="-4.3731" x2="119.3394" y2="73.59">
			<stop  offset="0" style="stop-color:#8D8C8B"/>
			<stop  offset="1" style="stop-color:#000000"/>
		</linearGradient>
		<path fill="url(#SVGID_2_)" d="M58.891,14.438c-1.353-0.734-2.618-1.522-3.886-2.395c5.855,4.033,1.373,1.064,0.149,0.089
			c-3.707-2.955-7.387-5.996-11.54-8.306c-2.774-1.543-5.827-2.591-8.788-3.728c-1.428-0.548-6.545-2.452,0.17,0.388
			c-1.096-0.463-2.125-1.122-3.215-1.61c-7.199-3.035-7.963-3.359-2.293-0.973c-4.046-2.074-2.091,0.182,5.865,6.768
			C20.963,13.083,6.572,21.495-7.819,29.907c1.025,1.34,1.899,2.66,2.714,4.137c-3.281-5.947-0.714-1.156-0.275,1.225
			c-1.457-7.91-0.401-1.13-0.358,0.872c0.045,2.067,0.036,4.136,0.079,6.203c0.08,3.838,0.64,7.579,1.189,11.387
			c0.143,1.052,0.302,2.101,0.476,3.148c-0.472-4.354-0.632-5.216-0.481-2.588c0.827-4.388,0.888-5.19,0.185-2.404
			c1.5-3.519,1.776-4.176,0.828-1.972c-0.303,0.737-0.636,1.46-1.001,2.169c2.46-3.769,5.946-6.322,10.456-7.66
			C-4.498,48.672-12.361,56.421-12.361,68.53c0,13.906,11.38,24.632,25,25c5.577,0.151,10.459-1.422,15.72-2.717
			c-6.801,1.674-1.327,0.319,0.512,0.199c2.513-0.164,5.037-0.184,7.555-0.21c8.914-0.092,17.833,0.041,26.748,0.037
			c17.831-0.009,35.673-1.501,53.487-0.979c8.857,0.259,17.681,0.537,26.544,0.452c4.374-0.042,8.736,0.018,13.101,0.317
			c6.391,0.437-5.588-0.876,0.73,0.007c4.059,0.567,8.068,1.109,12.146,1.424c8.58,0.664,17.231,0.451,25.827,0.882
			c8.982,0.45,17.93,1.083,26.885-0.089c6.931-0.907,12.522-2.167,17.678-7.322c4.777-4.777,7.131-10.988,7.322-17.678
			c0.142-4.959-0.791-9.964-1.852-14.801c-0.335-1.524-1.208-7.25-0.33,0.009c-0.217-1.794-0.046-3.665,0.025-5.461
			c0.141-3.567,0.724-7.1,0.865-10.664c0.064-1.617,0.05-3.234,0.124-4.851c-0.143,1.166-0.286,2.332-0.428,3.498
			c-1.876,3.764-2.196,4.557-0.96,2.377c2.261-3.839,4.198-7.119,5.644-11.56c2.379-7.308,0.464-15.228-2.925-21.787
			c-6.814-13.186-21.905-14.425-34.66-12.459c-1.936,0.298-3.835,0.876-5.724,1.379c-1.801,0.479-10.93,1.972-4.043,1.067
			c-7.582,0.996-15.285,1.067-22.919,1.146c-7.79,0.081-15.579,0.014-23.363-0.298c-8.404-0.337-16.736-1.53-25.133-1.857
			c-7.675-0.298-15.369,0.15-23.046,0.114c-7.799-0.037-15.586-0.862-23.334-1.678c-7.708-0.812-15.409-1.88-23.171-1.864
			c-8.292,0.017-16.438-0.909-24.66,0.468C27.16-7.722,16.587,1.337,14.933,11.44c-1.859,11.357,0.986,20.86,9.185,29.061
			c3.884,3.885,8.791,7.187,13.644,9.814c5.855,3.171,12.044,4.456,18.118,6.882c12.676,5.061,27.442-5.424,30.753-17.461
			c3.919-14.248-4.816-25.704-17.461-30.753C66.595,7.954,63.92,7.311,61.271,6.5c-3.952-1.209,7.163,3.347,2.481,1.033
			c-1.372-0.678-2.689-1.462-3.992-2.263c-0.556-0.349-1.104-0.709-1.644-1.082c-3.484-2.345,5.136,4.206,2.021,1.565
			c-0.443-0.387-0.867-0.793-1.274-1.218c-0.183-0.204-0.366-0.407-0.549-0.611c2.463,2.415,4.126,5.295,4.991,8.641
			c2.257,10.109-1.051,18.335-9.922,24.677c-1.409,0.598-2.819,1.195-4.228,1.793c-4.7,0.47-5.66,0.682-2.879,0.637
			c5.143,0.046,10.217,0.555,15.388,0.49c12.931-0.162,25.891,2.406,38.786,3.255c13.444,0.885,26.899-0.598,40.322,0.894
			c12.917,1.436,25.958,1.54,38.939,1.435c13.425-0.109,27.187-0.681,40.255-3.999c1.566-0.398,3.119-0.829,4.697-1.181
			c2.563-0.476,1.359-0.331-3.611,0.435c0.315-0.012,0.631-0.024,0.946-0.036c-13.767-0.554-19.982-11.081-18.645-31.58
			c-0.965,1.903-2.406,3.469-3.269,5.443c-2.763,6.319-3.633,10.285-4.355,17.256c-0.59,5.703-0.837,11.644-1.064,17.381
			c-0.179,4.543,0.652,9.133,1.44,13.579c0.293,1.656,0.724,3.297,1.085,4.939c1.238,5.639-0.131-5.8-0.293-0.13
			c8.333-8.333,16.667-16.667,25-25c-8.351,1.093-16.714,0.644-25.094,0.185c-8.592-0.471-17.191-0.453-25.783-0.865
			c-1.839-0.088-3.671-0.255-5.503-0.43c3.595,0.511,3.974,0.565,1.139,0.16c-2.825-0.422-5.656-0.791-8.494-1.106
			c-4.331-0.499-8.721-0.499-13.074-0.496c-8.86,0.005-17.68-0.066-26.536-0.378c-17.81-0.628-35.634,0.861-53.455,0.914
			c-8.927,0.026-17.854-0.021-26.78-0.039c-4.409-0.009-8.805,0.123-13.199,0.499c-3.866,0.331-7.793,0.748-11.564,1.676
			c-1.001,0.303-2.003,0.607-3.004,0.912c-2.695,0.646-1.998,0.528,2.091-0.354c2.215,16.369,4.431,32.738,6.646,49.107
			c9.567-3.874,16.748-8.962,20.928-18.648c1.657-3.838,3.681-7.559,4.35-11.713c1.164-7.228,0.749-11.383-0.343-18.689
			c-0.416-2.639-0.324-2.002,0.275,1.91c-0.14-1.566-0.154-3.147-0.186-4.718c-0.064-3.066-0.039-6.123-0.236-9.185
			c-0.608-9.465-2.85-19.256-8.718-26.924c-4.157-5.432-8.063-9.597-14.941-11.489C13.961-8.593,6.923-7.68,1.15-4.298
			c-11.464,6.716-16.229,22.659-8.969,34.205c3.254,5.175,7.594,9.249,13.232,11.667c1.991,0.84,3.981,1.68,5.972,2.52
			c-4.048-1.828-5.051-2.213-3.012-1.155c3.272,1.751,6.781,3.115,10.261,4.383c1.579,0.575,6.244,2.748-0.255-0.322
			c1.509,0.713,7.292,5.065,1.421,0.487c4.508,3.515,8.813,7.388,13.856,10.125c11.979,6.501,27.161,3.056,34.205-8.969
			C74.58,37.171,70.854,20.93,58.891,14.438L58.891,14.438z"/>
	</g>
</g>
</svg>
